# xmcd
#
# Track frame offsets:
#	180
#	15910
#	36593
#	63288
#	77618
#	89618
#	104565
#	122341
#	138189
#	150988
#	169461
#	199136
#	215165
#
# Disc length: 3047 seconds
#
# Revision: 0
# Processed by: cddbd v1.5.1PL0 Copyright (c) Steve Scherf et al.
# Submitted via: dBpowerAMP V4.0
#
DISCID=ad0be50d
DTITLE=Hoofbeats featuring Brad Forwell - Have You Herd?
DYEAR=1997
DGENRE=Country
TTITLE0=Look My Way
TTITLE1=Missed You Again
TTITLE2=The Devil's Road
TTITLE3=Pretty in White
TTITLE4=Long Hard Kiss
TTITLE5=Time Won't Wait
TTITLE6=No One Like You
TTITLE7=If You Were Able
TTITLE8=Red River
TTITLE9=Let Go of My Heart
TTITLE10=I Don't Know
TTITLE11=Two Days Gone
TTITLE12=If I Could
EXTD=
EXTT0=
EXTT1=
EXTT2=
EXTT3=
EXTT4=
EXTT5=
EXTT6=
EXTT7=
EXTT8=
EXTT9=
EXTT10=
EXTT11=
EXTT12=
PLAYORDER=
